<svg viewBox="0 0 1481 400" xmlns="http://www.w3.org/2000/svg"><g><g><g><g><g><line x1="50" y1="377" x2="45" y2="377" style="visibility: inherit;" fill="rgb(0, 0, 0)" stroke="rgb(204, 204, 204)" stroke-width="1px"></line><line x1="50" y1="342.7272727272727" x2="45" y2="342.7272727272727" style="visibility: inherit;" fill="rgb(0, 0, 0)" stroke="rgb(204, 204, 204)" stroke-width="1px"></line><line x1="50" y1="308.4545454545455" x2="45" y2="308.4545454545455" style="visibility: inherit;" fill="rgb(0, 0, 0)" stroke="rgb(204, 204, 204)" stroke-width="1px"></line><line x1="50" y1="274.18181818181813" x2="45" y2="274.18181818181813" style="visibility: inherit;" fill="rgb(0, 0, 0)" stroke="rgb(204, 204, 204)" stroke-width="1px"></line><line x1="50" y1="239.90909090909085" x2="45" y2="239.90909090909085" style="visibility: inherit;" fill="rgb(0, 0, 0)" stroke="rgb(204, 204, 204)" stroke-width="1px"></line><line x1="50" y1="205.63636363636354" x2="45" y2="205.63636363636354" style="visibility: inherit;" fill="rgb(0, 0, 0)" stroke="rgb(204, 204, 204)" stroke-width="1px"></line><line x1="50" y1="171.36363636363637" x2="45" y2="171.36363636363637" style="visibility: inherit;" fill="rgb(0, 0, 0)" stroke="rgb(204, 204, 204)" stroke-width="1px"></line><line x1="50" y1="137.0909090909091" x2="45" y2="137.0909090909091" style="visibility: inherit;" fill="rgb(0, 0, 0)" stroke="rgb(204, 204, 204)" stroke-width="1px"></line><line x1="50" y1="102.81818181818177" x2="45" y2="102.81818181818177" style="visibility: inherit;" fill="rgb(0, 0, 0)" stroke="rgb(204, 204, 204)" stroke-width="1px"></line><line x1="50" y1="68.54545454545445" x2="45" y2="68.54545454545445" style="visibility: inherit;" fill="rgb(0, 0, 0)" stroke="rgb(204, 204, 204)" stroke-width="1px"></line><line x1="50" y1="34.27272727272716" x2="45" y2="34.27272727272716" style="visibility: inherit;" fill="rgb(0, 0, 0)" stroke="rgb(204, 204, 204)" stroke-width="1px"></line><line x1="50" y1="0" x2="45" y2="0" style="visibility: inherit;" fill="rgb(0, 0, 0)" stroke="rgb(204, 204, 204)" stroke-width="1px"></line></g><g transform="translate(40, 0)"><text x="0" y="377" dx="0em" dy="0.3em" style="text-anchor: end; visibility: hidden; font-family: Roboto, sans-serif; font-size: 12px; font-weight: 200;" fill="rgb(33, 33, 33)" stroke="none" stroke-width="1px">0.85</text><text x="0" y="342.7272727272727" dx="0em" dy="0.3em" style="text-anchor: end; visibility: inherit; font-family: Roboto, sans-serif; font-size: 12px; font-weight: 200;" fill="rgb(33, 33, 33)" stroke="none" stroke-width="1px">0.9</text><text x="0" y="308.4545454545455" dx="0em" dy="0.3em" style="text-anchor: end; visibility: inherit; font-family: Roboto, sans-serif; font-size: 12px; font-weight: 200;" fill="rgb(33, 33, 33)" stroke="none" stroke-width="1px">0.95</text><text x="0" y="274.18181818181813" dx="0em" dy="0.3em" style="text-anchor: end; visibility: inherit; font-family: Roboto, sans-serif; font-size: 12px; font-weight: 200;" fill="rgb(33, 33, 33)" stroke="none" stroke-width="1px">1</text><text x="0" y="239.90909090909085" dx="0em" dy="0.3em" style="text-anchor: end; visibility: inherit; font-family: Roboto, sans-serif; font-size: 12px; font-weight: 200;" fill="rgb(33, 33, 33)" stroke="none" stroke-width="1px">1.05</text><text x="0" y="205.63636363636354" dx="0em" dy="0.3em" style="text-anchor: end; visibility: inherit; font-family: Roboto, sans-serif; font-size: 12px; font-weight: 200;" fill="rgb(33, 33, 33)" stroke="none" stroke-width="1px">1.1</text><text x="0" y="171.36363636363637" dx="0em" dy="0.3em" style="text-anchor: end; visibility: inherit; font-family: Roboto, sans-serif; font-size: 12px; font-weight: 200;" fill="rgb(33, 33, 33)" stroke="none" stroke-width="1px">1.15</text><text x="0" y="137.0909090909091" dx="0em" dy="0.3em" style="text-anchor: end; visibility: inherit; font-family: Roboto, sans-serif; font-size: 12px; font-weight: 200;" fill="rgb(33, 33, 33)" stroke="none" stroke-width="1px">1.2</text><text x="0" y="102.81818181818177" dx="0em" dy="0.3em" style="text-anchor: end; visibility: inherit; font-family: Roboto, sans-serif; font-size: 12px; font-weight: 200;" fill="rgb(33, 33, 33)" stroke="none" stroke-width="1px">1.25</text><text x="0" y="68.54545454545445" dx="0em" dy="0.3em" style="text-anchor: end; visibility: inherit; font-family: Roboto, sans-serif; font-size: 12px; font-weight: 200;" fill="rgb(33, 33, 33)" stroke="none" stroke-width="1px">1.3</text><text x="0" y="34.27272727272716" dx="0em" dy="0.3em" style="text-anchor: end; visibility: inherit; font-family: Roboto, sans-serif; font-size: 12px; font-weight: 200;" fill="rgb(33, 33, 33)" stroke="none" stroke-width="1px">1.35</text><text x="0" y="0" dx="0em" dy="0.3em" style="text-anchor: end; visibility: hidden; font-family: Roboto, sans-serif; font-size: 12px; font-weight: 200;" fill="rgb(33, 33, 33)" stroke="none" stroke-width="1px">1.4</text></g><line x1="50" y1="0" x2="50" y2="377" fill="rgb(0, 0, 0)" stroke="rgb(204, 204, 204)" stroke-width="1px"></line></g></g><g transform="translate(50, 0)" clip-path="url(#clip_0)"><clipPath id="clip_0"><rect width="1431" height="377"></rect></clipPath><g><g><g><line x1="0" y1="0" x2="0" y2="377" fill="rgb(0, 0, 0)" stroke="rgb(66, 66, 66)" stroke-width="1px" opacity="0.25"></line><line x1="143.1" y1="0" x2="143.1" y2="377" fill="rgb(0, 0, 0)" stroke="rgb(66, 66, 66)" stroke-width="1px" opacity="0.25"></line><line x1="286.2" y1="0" x2="286.2" y2="377" fill="rgb(0, 0, 0)" stroke="rgb(66, 66, 66)" stroke-width="1px" opacity="0.25"></line><line x1="429.3" y1="0" x2="429.3" y2="377" fill="rgb(0, 0, 0)" stroke="rgb(66, 66, 66)" stroke-width="1px" opacity="0.25"></line><line x1="572.4" y1="0" x2="572.4" y2="377" fill="rgb(0, 0, 0)" stroke="rgb(66, 66, 66)" stroke-width="1px" opacity="0.25"></line><line x1="715.5" y1="0" x2="715.5" y2="377" fill="rgb(0, 0, 0)" stroke="rgb(66, 66, 66)" stroke-width="1px" opacity="0.25"></line><line x1="858.6" y1="0" x2="858.6" y2="377" fill="rgb(0, 0, 0)" stroke="rgb(66, 66, 66)" stroke-width="1px" opacity="0.25"></line><line x1="1001.6999999999999" y1="0" x2="1001.6999999999999" y2="377" fill="rgb(0, 0, 0)" stroke="rgb(66, 66, 66)" stroke-width="1px" opacity="0.25"></line><line x1="1144.8" y1="0" x2="1144.8" y2="377" fill="rgb(0, 0, 0)" stroke="rgb(66, 66, 66)" stroke-width="1px" opacity="0.25"></line><line x1="1287.9" y1="0" x2="1287.9" y2="377" fill="rgb(0, 0, 0)" stroke="rgb(66, 66, 66)" stroke-width="1px" opacity="0.25"></line><line x1="1431" y1="0" x2="1431" y2="377" fill="rgb(0, 0, 0)" stroke="rgb(66, 66, 66)" stroke-width="1px" opacity="0.25"></line></g><g><line x1="0" y1="377" x2="1431" y2="377" fill="rgb(0, 0, 0)" stroke="rgb(66, 66, 66)" stroke-width="1px" opacity="0.25"></line><line x1="0" y1="342.7272727272727" x2="1431" y2="342.7272727272727" fill="rgb(0, 0, 0)" stroke="rgb(66, 66, 66)" stroke-width="1px" opacity="0.25"></line><line x1="0" y1="308.4545454545455" x2="1431" y2="308.4545454545455" fill="rgb(0, 0, 0)" stroke="rgb(66, 66, 66)" stroke-width="1px" opacity="0.25"></line><line x1="0" y1="274.18181818181813" x2="1431" y2="274.18181818181813" fill="rgb(0, 0, 0)" stroke="rgb(66, 66, 66)" stroke-width="1px" opacity="0.25"></line><line x1="0" y1="239.90909090909085" x2="1431" y2="239.90909090909085" fill="rgb(0, 0, 0)" stroke="rgb(66, 66, 66)" stroke-width="1px" opacity="0.25"></line><line x1="0" y1="205.63636363636354" x2="1431" y2="205.63636363636354" fill="rgb(0, 0, 0)" stroke="rgb(66, 66, 66)" stroke-width="1px" opacity="0.25"></line><line x1="0" y1="171.36363636363637" x2="1431" y2="171.36363636363637" fill="rgb(0, 0, 0)" stroke="rgb(66, 66, 66)" stroke-width="1px" opacity="0.25"></line><line x1="0" y1="137.0909090909091" x2="1431" y2="137.0909090909091" fill="rgb(0, 0, 0)" stroke="rgb(66, 66, 66)" stroke-width="1px" opacity="0.25"></line><line x1="0" y1="102.81818181818177" x2="1431" y2="102.81818181818177" fill="rgb(0, 0, 0)" stroke="rgb(66, 66, 66)" stroke-width="1px" opacity="0.25"></line><line x1="0" y1="68.54545454545445" x2="1431" y2="68.54545454545445" fill="rgb(0, 0, 0)" stroke="rgb(66, 66, 66)" stroke-width="1px" opacity="0.25"></line><line x1="0" y1="34.27272727272716" x2="1431" y2="34.27272727272716" fill="rgb(0, 0, 0)" stroke="rgb(66, 66, 66)" stroke-width="1px" opacity="0.25"></line><line x1="0" y1="0" x2="1431" y2="0" fill="rgb(0, 0, 0)" stroke="rgb(66, 66, 66)" stroke-width="1px" opacity="0.25"></line></g></g></g><g><g><line x1="0" y1="959.6363636363637" x2="1431" y2="959.6363636363637" fill="rgb(0, 0, 0)" stroke="rgb(153, 153, 153)" stroke-width="1.5px"></line></g></g><g><g><line x1="143.1" y1="0" x2="143.1" y2="377" fill="rgb(0, 0, 0)" stroke="rgb(153, 153, 153)" stroke-width="1.5px"></line></g></g><g><g><g><g><g><path stroke="rgb(255, 112, 67)" stroke-width="2px" d="M200.34000000000003,-34.96219834509515L207.49499999999998,20.627905694617393L214.65,71.13771974701959L221.805,111.97946762915092L228.96,142.791833363797L236.115,163.9816719579524L243.27,190.50745518430278L250.42499999999998,208.27494400005438L257.58,217.91532529746965L264.735,227.12567922492352L271.89,240.0271156078407L279.045,244.94288295360687L286.2,256.6388846692452L293.35499999999996,262.2304274890192L300.51,266.9836235969429L307.665,269.45164531805193L314.82,275.84032095804633L321.975,274.65598263562066L329.13,280.5257373088342L336.28499999999997,283.5266493266113L343.44,286.56100579740735L350.59499999999997,290.65733016864795L357.75,295.7198589954395L364.90500000000003,296.01555964452785L372.06,297.5364651677369L379.21500000000003,298.11998463713724L386.37,300.0055241753723L393.52500000000003,301.986805474522L400.68000000000006,301.941763751334L407.835,304.8484807388818L414.98999999999995,305.468358688842L422.145,303.81134650913526L429.3,305.9702303784598L436.455,305.83980745041L443.61,308.2291909736513L450.765,310.45794956262574L457.92,311.46618096419616L465.075,312.45498901955784L472.23,314.55626260915636L479.38500000000005,314.5832162946319L486.54,315.5864434174655L493.69499999999994,315.94160779201127L500.84999999999997,317.8546379516033L508.005,318.2895794240181L515.16,319.70211926592344L522.3149999999999,319.6996692323806L529.47,319.2869236087001L536.625,322.05528643222004L543.78,321.65994245106776L550.9350000000001,322.4920428261125L558.09,323.8686833788841L565.245,324.1188884025745L572.4,323.41903747810704L579.5550000000001,324.20553100251703L586.7099999999999,326.0483349006713L593.865,327.34594367555457L601.02,328.34385810804827L608.175,326.74914777692726L615.33,327.21807482490874L622.485,326.8962290141525L629.64,327.79985102300736L636.795,330.0693621522371L643.95,330.1972583616214L651.105,327.6418387615074L658.26,329.0423453469562L665.4150000000001,329.2794472586803L672.5699999999999,330.6829416054413L679.725,332.89594599700604L686.88,333.5382947401908L694.035,335.8703910775823L701.1899999999999,337.26964888001714L708.345,336.6834666573337L715.5,336.2220827399419L722.655,337.83711036035146L729.8100000000001,336.8594234986066L736.965,335.97121036178714L744.12,335.9866553986047L751.275,338.3264623841573L758.4300000000001,338.7432916639623L765.585,336.8273529728008L772.74,339.1050592168747L779.8950000000001,338.14114299985687L787.0500000000001,339.8385041124723L794.205,340.2262960089235L801.3600000000001,337.8268301635594L808.5149999999999,339.1015598342945L815.67,338.76966814142696L822.8249999999999,340.24304192898734L829.9799999999999,340.66094513482324L837.135,342.6664640563245L844.29,343.0746469336893L851.4449999999999,341.7018769774632L858.6,342.79749570614507L865.755,342.1936174011179L872.91,341.2281047210662L880.0649999999999,343.77446555203335L887.22,343.4104240797691L894.375,343.68552665217385L901.53,343.0280369885078L908.6850000000001,342.0851866139088L915.84,344.8919167272841L922.995,343.8067164967198L930.15,343.95072483391715L937.3050000000001,346.03864604835223L944.46,346.1124174294957L951.615,346.6228013248821L958.7700000000001,346.1339031865779L965.9250000000001,345.456711431614L973.08,344.693949895717L980.2350000000001,344.2911384373248L987.3899999999999,346.73642166616014L994.545,345.1327686276091L1001.6999999999999,345.51406185641383L1008.8549999999999,347.2234201609868L1016.01,346.4942744882408L1023.165,344.9052121261388L1030.32,345.51462527088637L1037.475,346.2092805665707L1044.6299999999999,345.255165960473L1051.785,345.39557382014146L1058.94,345.2056402477428L1066.095,346.7093434444387L1073.25,348.37927110641925L1080.405,349.73767418652614L1087.56,347.6738031522188L1094.715,347.47738090630713L1101.8700000000001,348.3191597387139L1109.025,347.26139281865886L1116.18,347.80571401414346L1123.335,348.4064850196338L1130.49,350.4668791577819L1137.645,350.0306068373898L1144.8,348.15116376250967L1151.9550000000002,347.62669995712685L1159.1100000000001,347.5587772305239L1166.2649999999999,349.60180800139756L1173.4199999999998,349.2922149759955L1180.575,347.2420239214826L1187.73,350.2617299546546L1194.885,349.578493564168L1202.04,350.51203678181133L1209.195,350.77056169262477L1216.35,350.4595719149223L1223.5049999999999,349.94395429695527L1230.66,348.09917223824897L1237.815,349.07608740986046L1244.97,348.97678262107326L1252.125,349.49297905577333L1259.28,348.8156420050666L1266.435,348.4914916268514L1273.59,350.3259566861217L1280.7450000000001,349.9186306228209L1287.9,351.07256549992144" style="fill: none;" fill="none"></path></g></g></g></g><g opacity="0.2"><g><g><g><path stroke="rgb(255, 112, 67)" stroke-width="2px" d="M186.03,-26.39003203131939L193.185,50.58653970198191L200.34000000000003,78.8272956067865L207.49499999999998,102.6125113313848L214.65,146.13890699906776L221.805,172.8716578050093L228.96,188.8427024321122L236.115,195.6972413496537L243.27,230.24416325309053L250.42499999999998,234.90529220754448L257.58,232.3690980997952L264.735,240.9373126029968L271.89,259.3759945089167L279.045,252.31578510457817L286.2,274.18181818181813L293.35499999999996,270.61743506518275L300.51,274.11326135288584L307.665,273.15362917293197L314.82,285.42325873808426L321.975,272.87948356975204L329.13,289.3303442868319L336.28499999999997,288.0280096747658L343.44,291.11253584514964L350.59499999999997,296.801812952215L357.75,303.31364943764424L364.90500000000003,296.45911052010274L372.06,299.81782314994115L379.21500000000003,298.9952637715773L386.37,302.83383334766734L393.52500000000003,304.9587273380973L400.68000000000006,301.87420116771347L407.835,309.20855617523193L414.98999999999995,306.39817560802805L422.145,301.3258282488042L429.3,309.20855617523193L436.455,305.6441730585965L443.61,311.8132662556388L450.765,313.8010874444788L457.92,312.9785280661149L465.075,313.93820110234344L472.23,317.70817299322647L479.38500000000005,314.62364682284266L486.54,317.0912841016596L493.69499999999994,316.474354353818L500.84999999999997,320.7241831909526L508.005,318.94199163263494L515.16,321.8209290287711L522.3149999999999,319.69599418206644L529.47,318.6678051731803L536.625,326.2078306674957L543.78,321.0669264793396L550.9350000000001,323.7401933886788L558.09,325.9336442080411L565.245,324.49419593811035L572.4,322.3692610914057L579.5550000000001,325.3852712891318L586.7099999999999,328.8125407479026L593.865,329.2923568378795L601.02,329.84072975678873L608.175,324.35708228024566L615.33,327.9214653968811L622.485,326.413460298018L629.64,329.1552840362895L636.795,333.4736288460818L643.95,330.389102675698L651.105,323.8087093613364L658.26,331.14310522512955L665.4150000000001,329.6351001262665L672.5699999999999,332.7881831255826L679.725,336.21545258435333L686.88,334.50181785496795L694.035,339.3685355836695L701.1899999999999,339.3685355836695L708.345,335.80419332330877L715.5,335.5300068638541L722.655,340.2596517909657L729.8100000000001,335.3928932059895L736.965,334.6388906565579L744.12,336.009822953831L751.275,341.83617286248636L758.4300000000001,339.3685355836695L765.585,333.9534449360587L772.74,342.5216185829856L779.8950000000001,336.69526867433024L787.0500000000001,342.3845457813956L794.205,340.8079838536002L801.3600000000001,334.22763139551336L808.5149999999999,341.0136543403972L815.67,338.27183060212565L822.8249999999999,342.45310261032796L829.9799999999999,341.2877999435771L837.135,345.6747424385764L844.29,343.68692124973643L851.4449999999999,339.6427220431241L858.6,344.44092379916793L865.755,341.2877999435771L872.91,339.77983570098877L880.0649999999999,347.5940067984841L887.22,342.8643618713725L894.375,344.098180510781L901.53,342.0418024930087L908.6850000000001,340.67091105201024L915.84,349.10201189734715L922.995,342.1789161508733L930.15,344.16673733971334L937.3050000000001,349.1705278700048L944.46,346.223074501211L951.615,347.3883771679618L958.7700000000001,345.4005559791218L965.9250000000001,344.44092379916793L973.08,343.54980759187174L980.2350000000001,343.68692124973643L987.3899999999999,350.40434650941324L994.545,342.72728906978256L1001.6999999999999,346.086001699621L1008.8549999999999,349.78745761784637L1016.01,345.4005559791218L1023.165,342.5216185829856L1030.32,346.42874498800796L1037.475,347.25126351009715L1044.6299999999999,343.8239940513264L1051.785,345.60618560964406L1058.94,344.9207398891449L1066.095,348.9648982394825L1073.25,350.88416259939015L1080.405,351.7752788066864L1087.56,344.5779966007579L1094.715,347.18274753743947L1101.8700000000001,349.58182798732406L1109.025,345.6747424385764L1116.18,348.62219580737025L1123.335,349.30764152786946L1130.49,353.55747036500406L1137.645,349.3761983568018L1144.8,345.33199915018946L1151.9550000000002,346.8400042490525L1159.1100000000001,347.4568931406194L1166.2649999999999,352.6663541577079L1173.4199999999998,348.82782543789256L1180.575,344.16673733971334L1187.73,354.79128900441253L1194.885,348.5536389784379L1202.04,351.91235160827637L1209.195,351.1583490588448L1216.35,349.9930872483687L1223.5049999999999,349.1705278700048L1230.66,345.33199915018946L1237.815,350.54146016727793L1244.97,348.82782543789256L1252.125,350.2672737078233L1259.28,347.7996364290064L1266.435,348.00526605952865L1273.59,353.07765427502716L1280.7450000000001,349.30764152786946L1287.9,352.80346781557256" style="fill: none;" fill="none"></path></g></g></g></g></g></g><g transform="translate(50, 377)" clip-path="url(#clip_1)"><clipPath id="clip_1"><rect width="1431" height="23"></rect></clipPath><g><g><line x1="0" y1="0" x2="0" y2="5" style="visibility: inherit;" fill="rgb(0, 0, 0)" stroke="rgb(204, 204, 204)" stroke-width="1px"></line><line x1="143.1" y1="0" x2="143.1" y2="5" style="visibility: inherit;" fill="rgb(0, 0, 0)" stroke="rgb(204, 204, 204)" stroke-width="1px"></line><line x1="286.2" y1="0" x2="286.2" y2="5" style="visibility: inherit;" fill="rgb(0, 0, 0)" stroke="rgb(204, 204, 204)" stroke-width="1px"></line><line x1="429.3" y1="0" x2="429.3" y2="5" style="visibility: inherit;" fill="rgb(0, 0, 0)" stroke="rgb(204, 204, 204)" stroke-width="1px"></line><line x1="572.4" y1="0" x2="572.4" y2="5" style="visibility: inherit;" fill="rgb(0, 0, 0)" stroke="rgb(204, 204, 204)" stroke-width="1px"></line><line x1="715.5" y1="0" x2="715.5" y2="5" style="visibility: inherit;" fill="rgb(0, 0, 0)" stroke="rgb(204, 204, 204)" stroke-width="1px"></line><line x1="858.6" y1="0" x2="858.6" y2="5" style="visibility: inherit;" fill="rgb(0, 0, 0)" stroke="rgb(204, 204, 204)" stroke-width="1px"></line><line x1="1001.6999999999999" y1="0" x2="1001.6999999999999" y2="5" style="visibility: inherit;" fill="rgb(0, 0, 0)" stroke="rgb(204, 204, 204)" stroke-width="1px"></line><line x1="1144.8" y1="0" x2="1144.8" y2="5" style="visibility: inherit;" fill="rgb(0, 0, 0)" stroke="rgb(204, 204, 204)" stroke-width="1px"></line><line x1="1287.9" y1="0" x2="1287.9" y2="5" style="visibility: inherit;" fill="rgb(0, 0, 0)" stroke="rgb(204, 204, 204)" stroke-width="1px"></line><line x1="1431" y1="0" x2="1431" y2="5" style="visibility: inherit;" fill="rgb(0, 0, 0)" stroke="rgb(204, 204, 204)" stroke-width="1px"></line></g><g transform="translate(0, 8)"><text x="0" y="0" dx="0em" dy="0.95em" style="text-anchor: middle; visibility: hidden; font-family: Roboto, sans-serif; font-size: 12px; font-weight: 200;" fill="rgb(33, 33, 33)" stroke="none" stroke-width="1px">-500</text><text x="143.1" y="0" dx="0em" dy="0.95em" style="text-anchor: middle; visibility: inherit; font-family: Roboto, sans-serif; font-size: 12px; font-weight: 200;" fill="rgb(33, 33, 33)" stroke="none" stroke-width="1px">0</text><text x="286.2" y="0" dx="0em" dy="0.95em" style="text-anchor: middle; visibility: inherit; font-family: Roboto, sans-serif; font-size: 12px; font-weight: 200;" fill="rgb(33, 33, 33)" stroke="none" stroke-width="1px">500</text><text x="429.3" y="0" dx="0em" dy="0.95em" style="text-anchor: middle; visibility: inherit; font-family: Roboto, sans-serif; font-size: 12px; font-weight: 200;" fill="rgb(33, 33, 33)" stroke="none" stroke-width="1px">1k</text><text x="572.4" y="0" dx="0em" dy="0.95em" style="text-anchor: middle; visibility: inherit; font-family: Roboto, sans-serif; font-size: 12px; font-weight: 200;" fill="rgb(33, 33, 33)" stroke="none" stroke-width="1px">1.5k</text><text x="715.5" y="0" dx="0em" dy="0.95em" style="text-anchor: middle; visibility: inherit; font-family: Roboto, sans-serif; font-size: 12px; font-weight: 200;" fill="rgb(33, 33, 33)" stroke="none" stroke-width="1px">2k</text><text x="858.6" y="0" dx="0em" dy="0.95em" style="text-anchor: middle; visibility: inherit; font-family: Roboto, sans-serif; font-size: 12px; font-weight: 200;" fill="rgb(33, 33, 33)" stroke="none" stroke-width="1px">2.5k</text><text x="1001.6999999999999" y="0" dx="0em" dy="0.95em" style="text-anchor: middle; visibility: inherit; font-family: Roboto, sans-serif; font-size: 12px; font-weight: 200;" fill="rgb(33, 33, 33)" stroke="none" stroke-width="1px">3k</text><text x="1144.8" y="0" dx="0em" dy="0.95em" style="text-anchor: middle; visibility: inherit; font-family: Roboto, sans-serif; font-size: 12px; font-weight: 200;" fill="rgb(33, 33, 33)" stroke="none" stroke-width="1px">3.5k</text><text x="1287.9" y="0" dx="0em" dy="0.95em" style="text-anchor: middle; visibility: inherit; font-family: Roboto, sans-serif; font-size: 12px; font-weight: 200;" fill="rgb(33, 33, 33)" stroke="none" stroke-width="1px">4k</text><text x="1431" y="0" dx="0em" dy="0.95em" style="text-anchor: middle; visibility: hidden; font-family: Roboto, sans-serif; font-size: 12px; font-weight: 200;" fill="rgb(33, 33, 33)" stroke="none" stroke-width="1px">4.5k</text></g><line x1="0" y1="0" x2="1431" y2="0" fill="rgb(0, 0, 0)" stroke="rgb(204, 204, 204)" stroke-width="1px"></line></g></g></g></g></svg>